#!OML:ASF F:\VICON\USERDATA\INSTALL\rory3\rory3.ASF
:FULLY-SPECIFIED
:DEGREES
196
root 8.85433 18.1363 -11.0581 -186.378 -6.76493 181.657
lowerback 12.34 2.60828 1.64345
upperback 0.858989 3.6144 0.610298
thorax -5.94776 1.68687 -0.899508
lowerneck -17.887 -4.19779 -13.408
upperneck 34.2111 -6.98495 7.64702
head 15.8887 -4.48444 4.08071
rclavicle 5.38508e-014 7.14382e-015
rhumerus -24.8323 -12.4528 -78.3907
rradius 36.9751
rwrist 5.83969
rhand -15.342 8.00218
rfingers 7.12502
rthumb 10.8349 -21.6983
lclavicle 5.38508e-014 7.14382e-015
lhumerus -37.8199 17.0291 75.8423
lradius 29.4861
lwrist -3.57953
lhand -17.1716 23.9471
lfingers 7.12502
lthumb 9.0698 53.7321
rfemur 6.21027 -5.33381 23.619
rtibia 30.0418
rfoot -9.3606 1.58866
rtoes -11.9693
lfemur -12.9704 -2.59718 -18.5976
ltibia 27.2617
lfoot -7.58031 5.81613
ltoes -7.39668
197
root 8.86683 18.1492 -10.9511 -186.497 -6.92507 181.737
lowerback 12.3275 2.4444 1.5783
upperback 0.870751 3.39228 0.717733
thorax -5.94401 1.58035 -0.711945
lowerneck -17.8147 -4.12863 -13.3491
upperneck 34.2915 -6.94878 7.62831
head 15.9004 -4.48062 4.06973
rclavicle -1.95566e-014 4.24902e-015
rhumerus -24.8833 -12.3554 -78.3816
rradius 36.9463
rwrist 5.9908
rhand -15.4125 7.50593
rfingers 7.12502
rthumb 10.7669 -22.1981
lclavicle -1.95566e-014 4.24902e-015
lhumerus -37.8628 16.8489 76.0806
lradius 29.377
lwrist -3.60327
lhand -17.1553 24.2492
lfingers 7.12502
lthumb 9.08545 54.0335
rfemur 5.86982 -5.30502 23.8106
rtibia 30.1511
rfoot -9.27487 1.24637
rtoes -11.602
lfemur -13.0145 -2.35432 -18.5539
ltibia 29.0411
lfoot -7.60722 6.05802
ltoes -6.21169
198
root 8.87751 18.1587 -10.8434 -186.578 -7.00582 181.805
lowerback 12.2746 2.30535 1.53276
upperback 0.879317 3.20438 0.802482
thorax -5.91666 1.49048 -0.563217
lowerneck -17.7626 -4.02638 -13.3008
upperneck 34.3676 -6.90546 7.74482
head 15.9199 -4.45738 4.12186
rclavicle 2.15868e-016 -8.02593e-015
rhumerus -24.8911 -12.3049 -78.3654
rradius 36.7513
rwrist 6.06549
rhand -15.5586 7.49766
rfingers 7.12502
rthumb 10.6259 -22.2137
lclavicle 2.15868e-016 -8.02593e-015
lhumerus -37.917 16.6977 76.2707
lradius 29.2911
lwrist -3.70655
lhand -17.2292 24.059
lfingers 7.12502
lthumb 9.01423 53.8464
rfemur 5.47797 -5.17593 24.0059
rtibia 30.2959
rfoot -9.12944 0.89713
rtoes -10.5905
lfemur -13.0866 -2.12146 -18.4987
ltibia 30.833
lfoot -7.41241 5.99377
ltoes -5.91406
199
root 8.88533 18.1695 -10.7403 -186.623 -7.0803 181.837
lowerback 12.1707 2.17442 1.50817
upperback 0.857687 3.03041 0.852373
thorax -5.88859 1.40765 -0.464083
lowerneck -17.7362 -3.92133 -13.2703
upperneck 34.5551 -6.85556 7.80567
head 15.9982 -4.45005 4.15549
rclavicle 2.24681e-014 -1.14798e-014
rhumerus -25.0069 -12.3395 -78.3216
rradius 36.5766
rwrist 6.114
rhand -15.6155 7.60201
rfingers 7.12502
rthumb 10.571 -22.1121
lclavicle 2.24681e-014 -1.14798e-014
lhumerus -37.9861 16.6524 76.3695
lradius 29.1469
lwrist -4.05166
lhand -17.1735 23.6789
lfingers 7.12502
lthumb 9.06791 53.464
rfemur 5.03999 -5.01674 24.1667
rtibia 30.4683
rfoot -8.93992 0.499347
rtoes -9.65929
lfemur -13.1269 -1.91529 -18.4716
ltibia 32.6204
lfoot -7.44487 5.58924
ltoes -6.45904
200
root 8.8907 18.1836 -10.6413 -186.724 -7.19004 181.914
lowerback 12.1039 2.03642 1.57615
upperback 0.812148 2.86085 0.89065
thorax -5.90065 1.32412 -0.432149
lowerneck -17.5182 -3.87821 -13.3393
upperneck 34.6193 -6.90039 7.91204
head 15.9916 -4.48909 4.20657
rclavicle -4.30505e-014 3.18055e-015
rhumerus -25.3274 -12.626 -78.2305
rradius 36.5233
rwrist 6.18654
rhand -15.6116 7.58522
rfingers 7.12502
rthumb 10.5748 -22.1287
lclavicle -4.30505e-014 3.18055e-015
lhumerus -38.0299 16.5659 76.436
lradius 28.8835
lwrist -4.52778
lhand -16.9971 23.8094
lfingers 7.12502
lthumb 9.2381 53.587
rfemur 4.65681 -4.85496 24.3622
rtibia 30.6555
rfoot -8.79391 0.110105
rtoes -8.98179
lfemur -13.0739 -1.74802 -18.3993
ltibia 34.4028
lfoot -7.67147 5.05013
ltoes -7.64571
201
root 8.89366 18.1976 -10.5402 -186.811 -7.29417 181.801
lowerback 11.9416 1.91282 1.48971
upperback 0.880897 2.67634 0.847067
thorax -5.74206 1.23708 -0.391159
lowerneck -17.3912 -3.89575 -13.3013
upperneck 34.5287 -6.97679 7.95043
head 15.9274 -4.51373 4.19966
rclavicle 2.91472e-014 1.34677e-014
rhumerus -25.5978 -13.0464 -78.2378
rradius 36.7365
rwrist 6.15897
rhand -15.5097 7.33983
rfingers 7.12502
rthumb 10.6731 -22.3691
lclavicle 2.91472e-014 1.34677e-014
lhumerus -37.8764 16.3508 76.5774
lradius 28.7035
lwrist -4.70408
lhand -16.8156 24.1165
lfingers 7.12502
lthumb 9.4133 53.8863
rfemur 4.2876 -4.71223 24.3317
rtibia 30.8417
rfoot -8.68362 -0.231696
rtoes -9.04993
lfemur -12.9974 -1.63108 -18.5396
ltibia 36.1671
lfoot -7.997 4.41585
ltoes -9.10513
202
root 8.89584 18.2032 -10.4372 -186.969 -7.3473 181.769
lowerback 11.9032 1.78029 1.45904
upperback 0.951363 2.49085 0.863886
thorax -5.651 1.14642 -0.322988
lowerneck -17.5259 -3.82059 -13.1394
upperneck 34.6622 -6.8929 7.8502
head 15.9992 -4.47894 4.14395
rclavicle -9.69696e-015 -7.40473e-015
rhumerus -25.8927 -13.2927 -78.2295
rradius 36.9813
rwrist 6.03367
rhand -15.4378 7.12792
rfingers 7.12502
rthumb 10.7424 -22.5774
lclavicle -9.69696e-015 -7.40473e-015
lhumerus -37.8067 16.3165 76.7013
lradius 28.6156
lwrist -4.98239
lhand -16.682 24.4399
lfingers 7.12502
lthumb 9.54218 54.2038
rfemur 3.98729 -4.57436 24.3699
rtibia 31.0327
rfoot -8.61821 -0.545736
rtoes -9.44362
lfemur -12.8059 -1.51068 -18.5664
ltibia 37.8963
lfoot -8.34087 3.55433
ltoes -9.33499
203
root 8.89776 18.2102 -10.3391 -187.139 -7.44774 181.793
lowerback 11.9627 1.65616 1.51343
upperback 0.886554 2.33942 0.882433
thorax -5.75325 1.07075 -0.312319
lowerneck -17.3309 -3.70748 -13.0364
upperneck 34.7449 -6.81966 7.79557
head 15.9727 -4.46594 4.11672
rclavicle -7.36654e-014 1.63997e-015
rhumerus -26.4489 -13.5299 -78.1091
rradius 37.0429
rwrist 5.75619
rhand -15.4803 7.24695
rfingers 7.12502
rthumb 10.7015 -22.4605
lclavicle -7.36654e-014 1.63997e-015
lhumerus -37.9179 16.2033 76.7585
lradius 28.4277
lwrist -5.39126
lhand -16.5928 24.4922
lfingers 7.12502
lthumb 9.62823 54.2522
rfemur 3.69718 -4.43196 24.4677
rtibia 31.2532
rfoot -8.48522 -0.871398
rtoes -9.45793
lfemur -12.5341 -1.42114 -18.5266
ltibia 39.565
lfoot -8.485 2.72091
ltoes -9.27125
204
root 8.89746 18.2212 -10.2409 -187.263 -7.59313 181.701
lowerback 11.9937 1.5129 1.48759
upperback 0.816787 2.14926 0.832245
thorax -5.84582 0.978355 -0.321041
lowerneck -17.0844 -3.64252 -12.9962
upperneck 34.7414 -6.80993 7.79541
head 15.9068 -4.47592 4.11087
rclavicle 2.30715e-014 1.30701e-014
rhumerus -26.9657 -13.8386 -78.0328
rradius 37.0114
rwrist 5.4214
rhand -15.5352 7.3286
rfingers 7.12502
rthumb 10.6485 -22.3816
lclavicle 2.30715e-014 1.30701e-014
lhumerus -38.0687 15.861 76.8548
lradius 28.4475
lwrist -5.44101
lhand -16.3693 24.7614
lfingers 7.12502
lthumb 9.84385 54.5112
rfemur 3.34282 -4.38494 24.3799
rtibia 31.5042
rfoot -8.26885 -1.02113
rtoes -8.64482
lfemur -12.2517 -1.46419 -18.6261
ltibia 41.1354
lfoot -8.52414 2.06672
ltoes -10.343
205
root 8.89663 18.2294 -10.1368 -187.401 -7.66872 181.589
lowerback 12.0499 1.36396 1.39044
upperback 0.814835 1.93841 0.818898
thorax -5.88499 0.87679 -0.246621
lowerneck -17.0403 -3.58051 -13.0657
upperneck 34.7708 -6.76305 7.89491
head 15.9105 -4.46406 4.17581
rclavicle -1.02821e-014 6.26172e-015
rhumerus -27.3655 -13.8251 -77.9997
rradius 37.0221
rwrist 4.94997
rhand -15.6172 6.97017
rfingers 7.12502
rthumb 10.5695 -22.7441
lclavicle -1.02821e-014 6.26172e-015
lhumerus -38.0753 15.7843 76.958
lradius 28.4743
lwrist -5.37484
lhand -16.4199 25.3967
lfingers 7.12502
lthumb 9.79506 55.1489
rfemur 2.97245 -4.25415 24.2775
rtibia 31.7793
rfoot -8.12467 -1.16389
rtoes -8.19118
lfemur -11.8889 -1.54264 -18.7254
ltibia 42.6047
lfoot -8.60813 1.53216
ltoes -10.6225
206
root 8.89422 18.24 -10.0345 -187.464 -7.67067 181.388
lowerback 11.9855 1.29061 1.23792
upperback 0.836562 1.8165 0.769381
thorax -5.83065 0.821234 -0.190503
lowerneck -17.0728 -3.59591 -13.1809
upperneck 34.8036 -6.85731 8.12851
head 15.965 -4.49627 4.28107
rclavicle 2.97649e-014 8.34896e-015
rhumerus -27.8621 -13.8426 -77.9431
rradius 37.3027
rwrist 4.41739
rhand -15.3866 5.98649
rfingers 7.12502
rthumb 10.7919 -23.7163
lclavicle 2.97649e-014 8.34896e-015
lhumerus -37.8064 15.7301 77.0735
lradius 28.1423
lwrist -5.5218
lhand -16.7401 25.1428
lfingers 7.12502
lthumb 9.48607 54.9093
rfemur 2.54448 -4.07621 24.0746
rtibia 32.0505
rfoot -8.03154 -1.31268
rtoes -8.11228
lfemur -11.5153 -1.60311 -18.9101
ltibia 43.9789
lfoot -8.66341 1.09292
ltoes -9.94151
207
root 8.88844 18.2487 -9.93404 -187.532 -7.64727 181.292
lowerback 11.8822 1.22184 1.23737
upperback 0.859252 1.72139 0.741504
thorax -5.74908 0.775141 -0.201019
lowerneck -17.0715 -3.62829 -13.2922
upperneck 34.8482 -6.95636 8.2748
head 16.0146 -4.54339 4.34638
rclavicle -2.01448e-014 -5.46658e-015
rhumerus -28.3815 -14.0444 -77.8336
rradius 37.5502
rwrist 4.10299
rhand -15.2221 5.61393
rfingers 7.12502
rthumb 10.9505 -24.0805
lclavicle -2.01448e-014 -5.46658e-015
lhumerus -37.6172 15.6286 77.2107
lradius 27.951
lwrist -5.58744
lhand -16.9917 24.8326
lfingers 7.12502
lthumb 9.2434 54.61
rfemur 2.1349 -3.87064 23.9746
rtibia 32.2851
rfoot -7.73777 -1.42275
rtoes -7.37866
lfemur -11.1123 -1.57704 -18.9883
ltibia 45.2804
lfoot -8.49239 0.733768
ltoes -10.5708
208
root 8.88134 18.2548 -9.83312 -187.614 -7.61697 181.394
lowerback 11.7887 1.11443 1.4027
upperback 0.86558 1.60162 0.807353
thorax -5.68876 0.713089 -0.203303
lowerneck -17.0839 -3.59982 -13.3537
upperneck 34.8638 -6.89238 8.25963
head 16.0174 -4.53052 4.3625
rclavicle -5.70807e-015 -2.78299e-015
rhumerus -28.9404 -14.0113 -77.6935
rradius 37.719
rwrist 3.72182
rhand -15.4531 5.90896
rfingers 7.12502
rthumb 10.7277 -23.7971
lclavicle -5.70807e-015 -2.78299e-015
lhumerus -37.5386 15.6402 77.3723
lradius 27.9174
lwrist -5.59806
lhand -17.0968 25.2878
lfingers 7.12502
lthumb 9.14192 55.0696
rfemur 1.71208 -3.70757 24.0767
rtibia 32.5015
rfoot -7.44762 -1.46647
rtoes -7.67556
lfemur -10.6695 -1.55288 -18.8395
ltibia 46.4813
lfoot -8.24994 0.418642
ltoes -11.8201
209
root 8.8788 18.2653 -9.73084 -187.686 -7.54684 181.324
lowerback 11.7113 1.0389 1.29722
upperback 0.920697 1.48446 0.848112
thorax -5.59265 0.658317 -0.0799517
lowerneck -17.3169 -3.58019 -13.3381
upperneck 34.9258 -6.7944 8.1781
head 16.085 -4.49196 4.34271
rclavicle 3.29625e-015 0
rhumerus -29.4358 -13.9272 -77.5878
rradius 37.9134
rwrist 3.40912
rhand -15.4643 6.14273
rfingers 7.12502
rthumb 10.7169 -23.5639
lclavicle 3.29625e-015 0
lhumerus -37.1984 15.8091 77.5289
lradius 27.597
lwrist -5.6947
lhand -17.2962 25.3268
lfingers 7.12502
lthumb 8.94955 55.117
rfemur 1.30792 -3.37044 24.0571
rtibia 32.6844
rfoot -7.2333 -1.63233
rtoes -8.23527
lfemur -10.1717 -1.47095 -18.853
ltibia 47.5604
lfoot -8.07711 0.159622
ltoes -12.6944
